<?xml version="1.0" encoding="utf-8"?>
<!-- Generator: Adobe Illustrator 27.4.1, SVG Export Plug-In . SVG Version: 6.00 Build 0)  -->
<svg version="1.1" id="Layer_1" xmlns="http://www.w3.org/2000/svg" xmlns:xlink="http://www.w3.org/1999/xlink" x="0px" y="0px"
	 viewBox="0 0 383 102" style="enable-background:new 0 0 383 102;" xml:space="preserve">
<style type="text/css">
	.st0{clip-path:url(#SVGID_00000023997538621580395820000017789361525824877702_);}
	.st1{fill:none;stroke:#FFFFFF;stroke-width:8;}
	.st2{fill:#FFFFFF;}
	.st3{fill:none;stroke:#000000;stroke-width:6.5042;stroke-miterlimit:4.8179;}
</style>
<g>
	<defs>
		<rect id="SVGID_1_" x="3.7" y="6.7" width="370.7" height="90"/>
	</defs>
	<clipPath id="SVGID_00000161611749736471283110000006435948896822129564_">
		<use xlink:href="#SVGID_1_"  style="overflow:visible;"/>
	</clipPath>
	<g style="clip-path:url(#SVGID_00000161611749736471283110000006435948896822129564_);">
		<path class="st1" d="M3.7,6.7h370.7v90.1H3.7V6.7z"/>
	</g>
</g>
<g>
	<g transform="translate(57.64551, 200.453793)">
		<g>
			<path class="st2" d="M-12.1-173.6c4,0,7.6,0.9,10.8,2.7c3.2,1.8,5.7,4.2,7.5,7.4c1.8,3.1,2.7,6.5,2.7,10c0,4.9-1.3,9.5-4,13.9
				c-2.6,4.4-6.2,7.9-10.7,10.5c-4.5,2.6-9.2,3.9-14.1,3.9h-17.9l7.6-48.4H-12.1z M-23.4-135.8h2.4c5.1,0,9.2-1.5,12.2-4.5
				c3-3,4.5-6.9,4.5-11.7c0-3.2-1-5.9-3-7.9c-2-2-5.1-3-9.1-3h-2.7L-23.4-135.8z"/>
		</g>
	</g>
</g>
<g>
	<g transform="translate(88.765801, 200.453793)">
		<g>
			<path class="st2" d="M-7.1-173.6l-7.6,48.4h-12.6l7.6-48.4H-7.1z"/>
		</g>
	</g>
</g>
<g>
	<g transform="translate(99.267365, 200.453793)">
		<g>
			<path class="st2" d="M-3.6-173.6l-6,37.8H5.5l-1.7,10.7h-27.7l7.6-48.4H-3.6z"/>
		</g>
	</g>
</g>
<g>
	<g transform="translate(118.006784, 200.453793)">
		<g>
			<path class="st2" d="M2.4-173.6l-4,25.6c-0.4,2.3-0.6,4.2-0.6,5.7c0,2.4,0.5,4.3,1.6,5.5c1.1,1.3,2.9,1.9,5.4,1.9
				c3.1,0,5.5-1,7.2-3c1.7-2,2.8-5.2,3.4-9.6l4-26h12.6l-4.4,27.9c-0.9,5.7-2.3,10-4.4,12.9c-2.1,3-4.9,5.2-8.4,6.7
				c-3.5,1.5-7.4,2.2-11.8,2.2c-5.9,0-10.4-1.3-13.6-3.8c-3.2-2.6-4.8-6.3-4.8-11.2c0-0.9,0-1.9,0.1-2.9c0.1-1.1,1.8-11.7,5-31.8
				H2.4z"/>
		</g>
	</g>
</g>
<g>
	<g transform="translate(150.379607, 200.453793)">
		<g>
			<path class="st2" d="M13.5-173.6l-3.1,20h0.1l18.4-20h15.6l-22.9,22.9l17,25.5H22.2l-12.9-21H9.2l-3.3,21H-6.8l7.6-48.4H13.5z"/>
		</g>
	</g>
</g>
<path class="st3" d="M203.3,25.6c5.2,0,10,1.3,14.6,4l-6.6,9.8c-2.3-2.1-4.9-3.2-7.8-3.2c-1.5,0-3,0.4-4.2,1.3
	c-1.2,0.9-1.9,2-1.9,3.2c0,0.9,0.4,1.8,1.3,2.5c0.9,0.7,2.5,1.4,4.9,2.1c3.2,1,5.6,1.9,7.1,2.9c1.5,0.9,2.6,2.1,3.4,3.4
	c0.8,1.3,1.2,3,1.2,5.1c0,2.9-0.8,6-2.2,9.2c-1.5,3.3-3.9,5.8-7.4,7.8c-3.4,1.9-7.4,2.9-12.1,3c-6,0-11.4-1.8-16.2-5.5l7-10.2
	c3.3,3.3,6.8,5,10.3,5c2,0,3.6-0.5,5-1.5c1.3-1,2-2.3,2-3.9c0-2.1-2.1-3.6-6.2-4.8c-5-1.4-8.2-2.8-9.6-4.4c-1.5-1.6-2.2-3.7-2.2-6.3
	c0-5.5,1.9-10.1,5.6-13.8C193.2,27.4,197.8,25.6,203.3,25.6z M231.9,26.8L229,45.5h18.2l3-18.7h12.6L255,75.3h-12.6l3.2-19.9h-18.2
	l-3.2,19.9h-12.6l7.7-48.4H231.9z M292.1,26.8l10.6,48.4h-13.4l-1.8-8.4h-17.3l-4.7,8.4h-13.4l26.3-48.4H292.1z M275.1,57.2h10.5
	l-2.7-15.4h-0.1L275.1,57.2z M320,26.8l18.4,29.6h0.1l4.7-29.6h12.6l-7.7,48.4h-12.6l-18.4-29.7h-0.1l-4.7,29.7h-12.6l7.7-48.4H320z
	"/>
<g>
	<g transform="translate(176.903767, 200.453793)">
		<g>
			<path class="st2" d="M26.4-174.9c5.2,0,10,1.3,14.6,4l-6.6,9.8c-2.3-2.2-4.9-3.2-7.8-3.2c-1.5,0-2.9,0.4-4.2,1.3
				c-1.3,0.9-1.9,2-1.9,3.2c0,0.9,0.4,1.8,1.4,2.5c0.9,0.7,2.5,1.4,4.9,2.1c3.2,1,5.6,1.9,7.1,2.9c1.5,0.9,2.6,2.1,3.4,3.4
				c0.8,1.3,1.2,3,1.2,5c0,2.9-0.8,6-2.2,9.2c-1.5,3.2-4,5.8-7.4,7.8c-3.4,1.9-7.4,2.9-12.1,3c-6,0-11.4-1.8-16.2-5.5l7-10.2
				c3.3,3.3,6.8,5,10.4,5c2,0,3.6-0.5,5-1.5c1.3-1,2-2.3,2-3.9c0-2.1-2.1-3.6-6.2-4.8c-5-1.4-8.2-2.8-9.6-4.4
				c-1.4-1.6-2.2-3.7-2.2-6.3c0-5.5,1.9-10.1,5.6-13.8C16.3-173,20.9-174.9,26.4-174.9z"/>
		</g>
	</g>
</g>
<g>
	<g transform="translate(201.424126, 200.453793)">
		<g>
			<path class="st2" d="M30.5-173.6l-2.9,18.7h18.2l3-18.7h12.6l-7.6,48.4H41l3.1-19.9H26l-3.1,19.9H10.2l7.6-48.4H30.5z"/>
		</g>
	</g>
</g>
<g>
	<g transform="translate(235.001318, 200.453793)">
		<g>
			<path class="st2" d="M57.1-173.6l10.6,48.4H54.3l-1.8-8.4H35.1l-4.7,8.4H17.1l26.3-48.4H57.1z M40.1-143.2h10.5l-2.7-15.4h-0.1
				L40.1-143.2z"/>
		</g>
	</g>
</g>
<g>
	<g transform="translate(267.518667, 200.453793)">
		<g>
			<path class="st2" d="M52.5-173.6L70.9-144H71l4.7-29.6h12.6l-7.6,48.4H68.1l-18.4-29.7h-0.1l-4.7,29.7H32.3l7.6-48.4H52.5z"/>
		</g>
	</g>
</g>
</svg>
