<?xml version="1.0" encoding="utf-8"?>
<!-- Generator: Adobe Illustrator 27.4.1, SVG Export Plug-In . SVG Version: 6.00 Build 0)  -->
<svg version="1.1" id="Layer_1" xmlns="http://www.w3.org/2000/svg" xmlns:xlink="http://www.w3.org/1999/xlink" x="0px" y="0px"
	 viewBox="0 0 2500 754" style="enable-background:new 0 0 2500 754;" xml:space="preserve">
<style type="text/css">
	.st0{fill:#FFFFFF;}
</style>
<path class="st0" d="M2292.2,361.4h-88.5c-56.9,0-87.4,42.6-87.4,113.7V732h-167.8V361.4h-71.2c-56.9,0-87.4,42.6-87.4,113.7V732
	h-167.8V224.3h167.8v77.2c27.5-59.9,65.1-77.2,121-77.2h205.4v77.2c27.5-59.9,65.1-77.2,121-77.2h54.9L2292.2,361.4L2292.2,361.4z
	 M1585.5,517.8h-349.8c9.1,56.9,44.7,89.4,104.7,89.4c44.7,0,76.3-18.3,86.4-50.8l148.4,41.6c-36.6,88.3-127.1,142.1-234.9,142.1
	c-182,0-265.4-141.1-265.4-261.9c0-118.8,73.2-260.9,255.2-260.9c193.2,0,257.2,144.2,257.2,250.8
	C1587.7,484.6,1587,501.2,1585.5,517.8L1585.5,517.8z M1422.8,419.3c-4.1-43.7-35.6-84.3-92.5-84.3c-52.9,0-84.4,23.3-94.6,84.3
	H1422.8z M782.3,732h147.4l184-507.6H945l-89.5,295.4L764,224.4H596.2L782.3,732z M94.9,732h166.8V361.4h158.7V732h165.7V224.4
	H261.7v-31.5c0-34.5,24.4-55.8,63-55.8h95.6V0h-123C176.3,0,94.9,74.1,94.9,182.7v41.6H0.4v137.1h94.6V732z"/>
<path class="st0" d="M2395.9,747.2c57.3,0,103.7-46.4,103.7-103.6c0-57.2-46.4-103.6-103.7-103.6c-57.3,0-103.7,46.4-103.7,103.6
	C2292.2,700.9,2338.7,747.2,2395.9,747.2z"/>
</svg>
