<?xml version="1.0" encoding="utf-8"?>
<!-- Generator: Adobe Illustrator 27.4.1, SVG Export Plug-In . SVG Version: 6.00 Build 0)  -->
<svg version="1.1" id="Layer_1" xmlns="http://www.w3.org/2000/svg" xmlns:xlink="http://www.w3.org/1999/xlink" x="0px" y="0px"
	 viewBox="0 0 2500 610" style="enable-background:new 0 0 2500 610;" xml:space="preserve">
<style type="text/css">
	.st0{fill:#FFFFFF;}
</style>
<path class="st0" d="M2458.2,527.3c-22.8,0.2-41.1,18.9-40.9,41.7c0.2,22.8,18.9,41.1,41.7,40.9c22.8-0.2,41.1-18.9,40.9-41.7
	c-0.2-22.5-18.4-40.7-40.9-40.9H2458.2z M2458.2,605.1c-20,0.3-36.5-15.6-36.8-35.6c-0.3-20,15.6-36.5,35.6-36.8
	c20-0.3,36.5,15.6,36.8,35.6v0.6c0.4,19.6-15.1,35.8-34.7,36.2L2458.2,605.1 M2299.7,516H2210V375.5c0-33.5-0.6-76.6-46.7-76.6
	c-46.7,0-53.9,36.5-53.9,74.2V516h-89.7V227.1h86.1v39.5h1.2c17.6-30,50.2-48,85-46.7c90.9,0,107.7,59.8,107.7,137.6L2299.7,516z
	 M1918.5,187.6c-28.8,0-52.1-23.3-52.1-52.1s23.3-52.1,52.1-52.1c28.8,0,52.1,23.3,52.1,52.1
	C1970.6,164.3,1947.3,187.6,1918.5,187.6C1918.5,187.6,1918.5,187.6,1918.5,187.6 M1963.4,516h-89.8V227.1h89.8V516z M2344.4,0.2
	h-516c-24.4-0.3-44.4,19.3-44.7,43.6v518.1c0.3,24.4,20.3,43.9,44.7,43.7h516c24.4,0.3,44.5-19.2,44.9-43.7V43.8
	C2389,19.3,2368.9-0.2,2344.4,0.2 M1539.6,296.8c-44.9,0-71.8,30-71.8,73.6s26.9,73.6,71.8,73.6s71.8-29.9,71.8-73.6
	S1584.5,296.8,1539.6,296.8 M1694.1,515.9h-82.6v-38.3h-1.2c-21,28.3-54,45.1-89.2,45.5c-86.2,0-143-62.2-143-150.2
	c0-80.8,50.2-155,132.9-155c37.1,0,71.8,10.2,92.2,38.3h1.2V89.6h89.8L1694.1,515.9z M1262.9,337.8c0.7-29.7-22.8-54.3-52.5-55
	c-0.9,0-1.7,0-2.6,0c-32.6-2-60.8,22.5-63.4,55H1262.9z M1338.9,465.9c-30.2,36.6-75.2,57.7-122.7,57.5
	c-89.7,0-161.5-59.9-161.5-152.6s71.8-152.6,161.5-152.6c83.9,0,136.4,59.8,136.4,152.6v28.1h-208.2c5.4,33,34.2,57,67.6,56.2
	c25.9-0.2,50-13.4,64-35.3L1338.9,465.9z M447,227h86.2v39.5h1.2c17.5-30,50.2-48,84.9-46.7c91,0,107.7,59.9,107.7,137.6v158.4
	h-89.7V375.4c0-33.5-0.6-76.6-46.7-76.6c-46.6,0-53.8,36.5-53.8,74.2v142.9h-89.7L447,227z M772.6,89.7h89.7v254.8L964,226.9h110
	L956.2,360.6L1071.5,516H958.7l-95.2-142.8h-1.2V516h-89.7L772.6,89.7z M307.6,227h89.7v288.9h-89.7L307.6,227z M352.4,83.4
	c28.7,0,52,23.3,52,52.1c0,28.7-23.3,52-52.1,52c-28.7,0-52-23.3-52-52C300.4,106.7,323.7,83.4,352.4,83.4
	C352.4,83.4,352.4,83.4,352.4,83.4 M0,89.7h93.4v340.2h172.9v86.2H0V89.7z M2464.8,571.2c6.2,0.1,11.3-4.9,11.3-11.1
	c0-0.3,0-0.5,0-0.8c0-8.4-5.1-12.4-15.5-12.4h-16.8v44h6.3v-19.2h7.8l0.2,0.2l12.1,19h6.8l-13-19.6L2464.8,571.2z M2457.4,566.8
	h-7.3v-14.9h9.3c4.8,0,10.3,0.8,10.3,7.1C2469.7,566.2,2464.1,566.8,2457.4,566.8"/>
</svg>
