<?xml version="1.0" encoding="utf-8"?>
<!-- Generator: Adobe Illustrator 27.4.1, SVG Export Plug-In . SVG Version: 6.00 Build 0)  -->
<svg version="1.1" id="Layer_1" xmlns="http://www.w3.org/2000/svg" xmlns:xlink="http://www.w3.org/1999/xlink" x="0px" y="0px"
	 viewBox="0 0 2500 717" style="enable-background:new 0 0 2500 717;" xml:space="preserve">
<style type="text/css">
	.st0{fill:#FFFFFF;}
</style>
<path class="st0" d="M2197.5,716.8c-49.5-3.3-87.9-18.6-118.3-47.2c-12.3-11.6-25.4-29.2-32.9-44.4c-1.3-2.6-2.5-4.7-2.7-4.7
	c-0.2,0-3.4,1.8-7,4.1c-8,5-32.3,18.9-42.6,24.5c-67.5,36.3-137,57.8-207.2,64c-22.5,2-48.8,2.3-64.9,0.9
	c-35.9-3.3-65.1-13.6-88.7-31.2c-5.9-4.4-19.9-18.1-24.4-23.8c-4.5-5.9-8.7-12-12.5-18.3l-2.5-4.4l-7.6,6.6
	c-41.7,35.9-85,58.4-127.8,66.3c-20.7,3.8-42.8,4.3-58.3,1.1c-21.5-4.4-37.2-15.6-46.1-33c-10.2-20-12.7-47.2-7.8-86.2
	c2.9-23.3,5.4-35.8,15.8-78.5c5.5-22.7,10.3-49,12.1-66c1.1-10.1,1.1-24.8,0-31.7c-2.3-15.2-7.9-24-18-28
	c-3.6-1.4-12.7-1.7-17.2-0.6c-18.7,4.9-40.4,27.6-64.8,67.9c-33.7,55.7-52.2,107.9-57.2,161.6c-1,11.2-0.9,42.9,0.3,53.2
	c1.3,11.6,3.7,23.2,6.6,31.4c1.3,3.8,2.6,7.4,2.7,8c0.3,1-0.1,1-16.8,0.7c-18.5-0.3-30.2-1.3-43-3.4c-46.2-7.6-72.4-26.2-83.8-59.4
	c-6.9-20-8.8-41.6-6.5-73.7c1.6-22.1,4.7-40.4,11.5-67.1c6.3-24.7,9.3-40.3,11.3-58c1.1-10,1.3-28.6,0.3-33.5
	c-3.3-16.2-10.9-24.9-24.3-27.7c-2.7-0.6-5.7-0.8-9.8-0.6c-5,0.2-6.6,0.5-10,1.9c-17.5,6.9-36.1,29.7-55.7,68.1
	c-21.8,42.7-35.3,88.3-40,134.7c-2.5,25.1-2.5,61,0,84.6c1.4,12.6,4.2,26.3,7,33.5c0.4,1,0,1-14.6,0.7c-21.8-0.5-36.1-2.2-52-6.3
	c-23.6-6-42.6-16.7-55.7-31.2c-8.9-9.9-16.6-24.6-21-40.2c-0.5-1.8-1-3.6-1.6-5.3c-0.1-0.1-2.4,1.8-5.2,4.3
	c-39.2,35.8-74.8,58.2-112.6,71c-20.9,7.1-43.7,11-63.9,11c-29.8,0-51.1-10.3-65-31.4c-5.5-8.4-8.6-15.5-11.4-26.3
	c-5.4-20.9-4.4-46.4,3.3-85.9c5.1-25.9,10.2-46.8,22.2-89.9c8.6-31,14.5-52.7,18.1-66.8c2.8-11.1,3-12.2,3-18
	c-0.2-19-7.9-30.1-21.1-30.3c-3.7,0-4.4,0.1-8.4,2.2c-5.9,3-10.6,6.1-22.1,14.3l-9.8,7l-1.4,4.4c-8,24.1-25.5,59.2-45.7,91.6
	c-22.3,35.7-56.3,82.3-85.5,117.3c-57.2,68.5-106.2,105.7-149.5,113.3c-8.1,1.4-20.1,1.3-26.2-0.2c-26.8-6.7-49.1-33.8-68.4-83.3
	c-1.6-4.2-9.8-33.5-25.2-91c-8.2-30.8-16.6-61.6-25-92.3c-7.8-27.1-18-52-26.9-65.4c-6.9-10.4-15.5-17.1-22.7-17.8
	c-3-0.3-3.4-0.2-8,2.1c-4.8,2.4-18.6,11.3-30.4,19.6c-3.3,2.3-6.3,4.4-6.7,4.6c-0.4,0.2-5.1-5.5-13.1-15.9
	c-4.4-5.7-8.8-11.4-13.2-17.1c-0.7-0.8,0.4-1.8,8.8-9.4c19.1-17.1,38.1-34.4,57-51.7c25.9-23.8,40.9-36,58.3-47.4
	c18.5-12.2,30.3-16.8,44-17.4c34.6-1.5,57.6,19.2,70.1,63.3c3,10.5,4.3,17.5,8.9,46.1c11.8,74.6,16.9,101.5,24.7,132.6
	c9.3,37,19.6,58.5,30.6,63.9c3,1.5,3.9,1.7,6.5,1.5c12-0.9,29.2-19.7,52.9-57.7c19.5-31.3,31.2-56.6,35.4-75.9
	c1-4.8,1.2-7.2,1.2-17.1c0-9.6-0.2-12.1-1-15c-2.8-9.8-7.9-16.4-15.9-20.3c-6.5-3.2-10.9-4-21.2-4c-12.1,0-22.7,2-34.8,6.6
	c-3.4,1.3-5.5,1.8-5.6,1.4c-0.1-0.3,1.2-4.5,2.8-9.3c9.7-28.6,21.1-50.7,36.1-69.9c5.4-7,16.1-18,22.4-23.1
	c10.6-8.5,24.6-16.6,37-21.2c27.1-10,63.9-11.7,87.3-4.1c31.9,10.4,48.7,37.1,52.4,83.1l0.4,4.4l2.5-2.3c1.4-1.3,10.8-9.9,21-19.3
	c41.9-38.5,66.2-55.9,86.7-61.9c4-1.2,6.4-1.5,13.2-1.7c25.6-0.9,43.3,7.2,55.6,25.6c11.1,16.8,16.2,38.5,14.7,63.5
	c-0.4,7.2-1.2,12-5.9,35.1c-8.6,42.8-17.3,92.2-26.9,151.9c-3.2,19.8-3.3,20.6-3,27.7c0.8,17.8,4.5,28.9,12.6,37c3,3.1,5,4.6,8.1,6
	c7.2,3.4,17.5,4.6,24.5,2.8c4-1.1,12.4-5,19-9.1c12-7.3,37.9-27.2,38.3-29.4c0.1-0.7,1-7.1,1.9-14.3c0.9-7.2,4.1-27.4,7-44.8
	c5.6-33.6,8.5-53.5,10.2-70.6c1.4-13.8,2.4-31,2.1-35.1c-0.8-9.4-6.8-14.4-14.5-11.9c-5.3,1.7-16.5,8.6-32,19.6
	c-6.4,4.6-7.8,5.4-8.4,4.8c-3.2-3.4-29.2-33.4-29.2-33.7c0-0.2,1.4-1.5,3.1-3c4.7-4,28.2-26,56.5-52.6
	c34.5-32.6,44.9-41.7,59.2-52.5c10.9-8.2,19.3-13.1,26.5-15.5c3.1-1,4.8-1.2,10.7-1.2c4.2,0,8.5,0.4,10.7,0.9
	c14.9,3.3,26.6,11.8,36.2,26.2c10,14.9,16.1,30.7,18.9,49c1.5,10,1.7,29.4,0.3,37.5c-0.5,2.9-0.9,5.5-0.9,5.9c0,0.4,1.6-1.8,3.6-4.7
	c13.8-20.4,33.2-40.6,54.8-57.1c6.1-4.6,20-13.9,26.1-17.4c30.7-17.4,64.7-27.1,98.5-28.2c31.5-1,55.2,6.6,71.4,22.9
	c6.1,6.1,11.1,13.3,14.8,21.1c7.3,15.2,10.7,31.6,11.4,54.7l0.3,11.1l9.4-8.3c6-5.3,11.5-10.7,15.3-15.1
	c7.3-8.5,21.5-23.1,30.1-30.9c34.4-31.4,70.7-49.3,110.3-54.3c9.5-1.2,25.7-1.6,33.8-0.8c23.4,2.2,41.4,10,54,23.2
	c19.4,20.4,27.4,47.6,25.5,86.3c-1.4,27.7-5.6,53.6-17.2,104.8c-14.6,64.3-16.7,77.9-15,95.4c1.4,13.9,4.3,19.9,11.4,23.8
	c5.3,2.8,9.8,3.8,19,4.1c7.7,0.3,8.2,0.2,12.3-1.2c5.1-1.7,12-5.3,18.9-9.7c4-2.6,4.9-3.4,4.7-4.3c-0.8-3.6-1.5-22.5-1.2-34.1
	c0.9-37.6,9-70.2,26.1-105c11.7-23.7,25.6-44.9,44.1-67.1c54.1-64.8,118.6-104.9,191-118.6c29.6-5.6,64.5-7.1,90.2-3.8
	c48.8,6.3,79.3,27.4,92.9,64.3c4.4,12,6.9,25.4,7.3,39.9c0.4,15.2-1,25-5.7,39.4c-10.6,32.2-34.7,64.3-73.8,98.2
	c-45.9,39.8-102.4,67.6-166.8,81.9c-8.8,2-25.1,5.2-26.1,5.2c-0.6,0,5.4,7,9.2,10.7c12.1,11.7,27.2,18.4,45.9,20.5
	c7.2,0.8,33.3,0.3,45.6-0.8c51.5-4.9,102.1-18.7,161.4-44.1l12.1-5.2l-0.3-3c-1.7-15.6-1.7-37.9-0.1-53.5
	c4.2-41.1,18.3-79.8,42.5-116.5c9.8-14.8,18.5-26,32.4-41.6c29.7-33.3,57.9-55.5,92.6-73c39.5-20,81.2-30,129.1-30.9
	c20.4-0.4,34.2,0.7,50.4,3.9c22.9,4.6,44,13.9,61.7,27.1c10.6,8,23.9,22.1,33.6,35.9c23.6,33.3,35.3,77,33.9,127
	c-1.3,45.5-10.4,86.2-28,124.8c-15.8,34.6-41.6,70.3-70.5,97.3c-44.6,41.7-95.5,64.7-156.9,71C2236,716.7,2205,717.3,2197.5,716.8
	L2197.5,716.8z M2235.6,609.2c32.3-3.9,60.9-26.3,85.3-67c25-41.6,37.3-86,36.2-129.7c-0.5-17.8-2.7-31-7.6-45.7
	c-4.5-13.4-9-21.5-15.2-27c-6.5-5.8-12.4-7.4-24.8-6.5c-14.1,1-26.4,4.3-38.4,10.1c-22.8,11.2-41.7,30-59.3,59.2
	c-22.9,37.9-34.9,75.9-37.6,118.8c-1.4,22.9,2.1,41.9,11,59.9c6.3,12.5,14.4,21.4,23.2,25.3C2214.9,609.6,2224.7,610.5,2235.6,609.2
	L2235.6,609.2z M1736.6,515c49.7-19.9,94.7-55.1,121.3-94.9c8.3-12.4,13.5-24.2,15.1-34.1c0.8-4.7,0.4-13.6-0.8-18.7
	c-1-4-3.4-9-5.7-11.6c-2.2-2.5-6.3-5.1-10.3-6.4c-4-1.3-15.3-1.6-20.5-0.5c-22.2,4.7-44.1,21.7-66,51.4
	c-23.9,32.2-36.9,62.6-40,93.1c-0.8,7.8-0.7,24.2,0.1,24.2C1730.1,517.5,1733.2,516.4,1736.6,515L1736.6,515z M671.4,156.7
	c-12.3-1.1-24.8-4.6-32.9-9.2c-4.5-2.5-11.4-8.7-14.4-12.8c-4.3-5.9-7.5-14-9.1-23.3c-1.3-7.2-1.1-21,0.3-27.9
	c2.9-14,10.5-27.2,23.4-40.7c24.2-25.1,52.9-39.5,84.1-42.4c19.2-1.8,33.1,1.4,44.8,10.3c11.1,8.4,21.2,22.8,25.1,35.8
	c1.9,6.4,2.4,17.4,1.1,25.2c-3.1,18.1-13.1,35.2-30.8,52.4c-18.7,18.3-38.8,28.4-62.9,31.9C693,156.9,678.4,157.3,671.4,156.7z"/>
</svg>
