<?xml version="1.0" encoding="utf-8"?>
<!-- Generator: Adobe Illustrator 27.4.1, SVG Export Plug-In . SVG Version: 6.00 Build 0)  -->
<svg version="1.1" id="Layer_1" xmlns="http://www.w3.org/2000/svg" xmlns:xlink="http://www.w3.org/1999/xlink" x="0px" y="0px"
	 viewBox="0 0 2500 560" style="enable-background:new 0 0 2500 560;" xml:space="preserve">
<style type="text/css">
	.st0{fill-rule:evenodd;clip-rule:evenodd;fill:#FFFFFF;}
	.st1{fill-rule:evenodd;clip-rule:evenodd;}
</style>
<path class="st0" d="M780.7,88.1c-9.1-34.2-36.1-61.3-70.5-70.5C648,1,398.7,1,398.7,1S149.4,1,87.1,17.6
	c-34.2,9.1-61.3,36.1-70.5,70.5C0,150.2,0,280,0,280s0,129.8,16.6,191.9c9.1,34.2,36.1,61.3,70.5,70.5
	C149.4,559,398.7,559,398.7,559s249.4,0,311.5-16.6c34.2-9.1,61.3-36.1,70.5-70.5c16.6-62.2,16.6-191.9,16.6-191.9
	S797.3,150.2,780.7,88.1L780.7,88.1z"/>
<path class="st1" d="M319,399.6L526.1,280L319,160.4V399.6z"/>
<g>
	<path class="st0" d="M1157.3,508.7c-15.7-10.7-27-27.1-33.6-49.6c-6.6-22.5-10-52.3-10-89.6v-50.7c0-37.7,3.8-67.9,11.4-90.7
		c7.6-22.8,19.5-39.4,35.6-49.8c16.1-10.4,37.3-15.7,63.5-15.7c25.9,0,46.6,5.3,62.2,16c15.6,10.7,27,27.3,34.2,49.8
		c7.2,22.6,10.8,52.8,10.8,90.3v50.7c0,37.3-3.6,67.2-10.5,89.8c-7,22.6-18.4,39.2-34.2,49.6c-15.7,10.4-37.2,15.7-64.2,15.7
		C1194.8,524.7,1173,519.3,1157.3,508.7L1157.3,508.7z M1245.7,453.9c4.3-11.4,6.6-30.1,6.6-55.8v-109c0-25.1-2.2-43.4-6.6-55
		c-4.3-11.5-12-17.4-23.1-17.4c-10.7,0-18.1,5.8-22.6,17.4c-4.3,11.5-6.6,29.9-6.6,55v109c0,25.9,2,44.5,6.2,55.8
		c4.2,11.4,11.8,17.1,22.8,17.1C1233.6,471,1241.2,465.3,1245.7,453.9z M2368.2,370.4v17.6c0,22.4,0.6,39.2,2,50.5
		c1.3,11.2,4.1,19.4,8.2,24.5c4.2,5.1,10.7,7.7,19.4,7.7c11.8,0,19.9-4.6,24.2-13.7c4.3-9.1,6.7-24.4,7.1-45.7l67.9,3.9
		c0.4,3,0.5,7.2,0.5,12.6c0,32.3-8.9,56.4-26.5,72.4s-42.6,24-75,24c-38.8,0-66-12.2-81.6-36.5c-15.6-24.4-23.3-61.9-23.3-112.9v-61
		c0-52.5,8.1-90.7,24.2-114.9c16.1-24.1,43.8-36.2,83-36.2c27,0,47.7,4.9,62.1,14.8c14.5,9.9,24.6,25.2,30.6,46.2
		c5.8,20.9,8.9,49.8,8.9,86.6v59.9h-131.8L2368.2,370.4z M2378.2,223.3c-3.9,4.9-6.6,13.1-8,24.2c-1.4,11.2-2,28.3-2,51v25.1h57.6
		v-25.1c0-22.5-0.8-39.4-2.3-51c-1.5-11.5-4.3-19.8-8.2-24.5c-3.9-4.7-10.1-7.1-18.5-7.1C2388.4,215.8,2382.2,218.4,2378.2,223.3
		L2378.2,223.3z M965.8,363.8L876.2,40.5h78.1L985.7,187c8,36.1,13.8,66.8,17.6,92.3h2.3c2.7-18.3,8.5-48.8,17.6-91.8l32.5-147.1
		h78.1l-90.6,323.4V519h-77.5L965.8,363.8z M1585.5,169.4v349.4H1524l-6.9-42.7h-1.6c-16.7,32.3-41.9,48.5-75.2,48.5
		c-23.2,0-40.3-7.6-51.4-22.8c-11-15.2-16.5-38.9-16.5-71.3v-261h78.6V426c0,15.6,1.6,26.8,5.1,33.4c3.4,6.6,9.1,10,17.1,10
		c6.9,0,13.4-2,19.7-6.2c6.2-4.2,10.9-9.5,14-16V169.4L1585.5,169.4z M1989.1,169.4v349.4h-61.5l-6.9-42.7h-1.6
		c-16.7,32.3-41.9,48.5-75.2,48.5c-23.2,0-40.3-7.6-51.4-22.8c-11-15.2-16.5-38.9-16.5-71.3v-261h78.6V426c0,15.6,1.6,26.8,5.1,33.4
		c3.4,6.6,9.1,10,17.1,10c6.9,0,13.4-2,19.7-6.2c6.2-4.2,10.9-9.5,14-16V169.4L1989.1,169.4z"/>
	<path class="st0" d="M1799.3,103.8h-78.1v415h-77v-415h-78.1V40.5h233.1v63.3L1799.3,103.8z M2249.5,225.3
		c-4.8-22.1-12.4-38.1-23.1-47.9c-10.7-9.9-25.2-14.8-43.9-14.8c-14.5,0-27.9,4.1-40.5,12.3c-12.6,8.1-22.2,18.9-29,32.2h-0.6V22.9
		h-75.9V519h64.9l8-33.1h1.7c6.1,11.8,15.2,21.1,27.4,27.9c12.2,6.9,25.6,10.3,40.5,10.3c26.6,0,46.2-12.3,58.7-36.8
		c12.6-24.5,18.8-62.8,18.8-114.9V317C2256.6,278,2254.2,247.4,2249.5,225.3L2249.5,225.3z M2177.3,367.9c0,25.5-1,45.4-3.2,59.9
		c-2,14.5-5.6,24.7-10.5,30.8c-4.9,6.1-11.5,9.1-19.9,9.1c-6.5,0-12.4-1.5-18-4.6c-5.5-3-10-7.6-13.4-13.7V251
		c2.7-9.5,7.2-17.3,13.7-23.3c6.5-6.1,13.4-9.1,21.1-9.1c8,0,14.2,3.2,18.5,9.4c4.3,6.2,7.4,16.9,9.1,31.6
		c1.7,14.8,2.5,35.9,2.5,63.3v45.2H2177.3z"/>
</g>
</svg>
